<svg xmlns="http://www.w3.org/2000/svg" xmlns:xlink="http://www.w3.org/1999/xlink" style="isolation:isolate" width="572.557" height="145.308" viewBox="425.291 446.019 429.418 108.981"><path fill="#2E2E2E" d="M 490.461 450.272 L 490.461 450.272 Q 487.879 449.817 485.068 449.741 L 485.068 449.741 L 485.068 449.741 Q 482.258 449.665 479.448 449.665 L 479.448 449.665 L 479.448 449.665 Q 476.637 449.665 473.903 449.589 L 473.903 449.589 L 473.903 449.589 Q 471.168 449.513 468.586 448.905 L 468.586 448.905 L 468.586 448.905 Q 468.282 448.905 468.282 449.209 L 468.282 449.209 L 468.282 449.209 Q 466.611 455.589 465.396 462.881 L 465.396 462.881 L 465.396 462.881 Q 464.18 470.173 462.813 478.832 L 462.813 478.832 L 462.813 478.832 Q 461.446 487.491 459.623 497.745 L 459.623 497.745 L 459.623 497.745 Q 457.8 507.999 454.914 520.303 L 454.914 520.303 L 454.914 520.303 Q 451.876 507.999 450.433 496.453 L 450.433 496.453 L 450.433 496.453 Q 448.989 484.908 448.382 475.338 L 448.382 475.338 L 448.382 475.338 Q 447.774 465.767 447.622 458.931 L 447.622 458.931 L 447.622 458.931 Q 447.47 452.095 446.863 449.057 L 446.863 449.057 L 446.863 449.057 Q 445.647 448.753 442.457 448.601 L 442.457 448.601 L 442.457 448.601 Q 439.267 448.45 435.773 448.526 L 435.773 448.526 L 435.773 448.526 Q 432.279 448.601 429.241 449.057 L 429.241 449.057 L 429.241 449.057 Q 426.203 449.513 425.291 450.576 L 425.291 450.576 L 425.291 450.728 L 425.291 450.728 Q 427.418 477.009 431.823 502.91 L 431.823 502.91 L 431.823 502.91 Q 436.229 528.811 443.065 553.42 L 443.065 553.42 L 443.065 553.42 Q 445.495 554.18 448.913 554.408 L 448.913 554.408 L 448.913 554.408 Q 452.331 554.635 455.673 554.635 L 455.673 554.635 L 455.673 554.635 Q 458.864 554.635 461.446 554.332 L 461.446 554.332 L 461.446 554.332 Q 464.029 554.028 465.244 554.028 L 465.244 554.028 L 465.244 554.028 Q 468.89 540.812 472.232 527.975 L 472.232 527.975 L 472.232 527.975 Q 475.574 515.139 478.764 502.378 L 478.764 502.378 L 478.764 502.378 Q 481.954 489.617 484.916 476.705 L 484.916 476.705 L 484.916 476.705 Q 487.879 463.793 490.461 450.272 L 490.461 450.272 Z M 521.546 447.386 L 521.546 447.386 Q 514.71 447.538 511.14 447.31 L 511.14 447.31 L 511.14 447.31 Q 507.571 447.082 504.836 446.93 L 504.836 446.93 L 504.836 446.93 Q 503.773 446.93 501.57 446.703 L 501.57 446.703 L 501.57 446.703 Q 499.367 446.475 498.608 446.627 L 498.608 446.627 L 498.608 446.93 L 498.608 446.93 Q 497.241 459.691 497.317 472.983 L 497.317 472.983 L 497.317 472.983 Q 497.392 486.275 497.772 499.871 L 497.772 499.871 L 497.772 499.871 Q 498.152 513.467 498.304 527.291 L 498.304 527.291 L 498.304 527.291 Q 498.456 541.115 497.392 554.787 L 497.392 554.787 L 497.392 554.787 Q 498.912 554.332 503.013 554.559 L 503.013 554.559 L 503.013 554.559 Q 507.115 554.787 511.596 554.939 L 511.596 554.939 L 511.596 554.939 Q 516.078 555.091 519.951 554.863 L 519.951 554.863 L 519.951 554.863 Q 523.825 554.635 525.04 553.42 L 525.04 553.42 L 525.04 553.42 Q 524.281 540.508 524.129 527.291 L 524.129 527.291 L 524.129 527.291 Q 523.977 514.075 524.205 500.783 L 524.205 500.783 L 524.205 500.783 Q 524.433 487.491 524.812 474.274 L 524.812 474.274 L 524.812 474.274 Q 525.192 461.058 525.192 447.994 L 525.192 447.994 L 525.192 447.386 L 521.546 447.386 Z M 602.155 540.356 L 602.155 540.356 Q 602.003 539.14 602.079 537.545 L 602.079 537.545 L 602.079 537.545 Q 602.155 535.95 602.307 534.431 L 602.307 534.431 L 602.307 534.431 Q 602.459 532.76 602.459 531.089 L 602.459 531.089 L 602.459 531.089 Q 601.243 531.241 598.129 531.165 L 598.129 531.165 L 598.129 531.165 Q 595.015 531.089 590.989 530.937 L 590.989 530.937 L 590.989 530.937 Q 586.964 530.785 582.482 530.558 L 582.482 530.558 L 582.482 530.558 Q 578.001 530.33 574.051 530.178 L 574.051 530.178 L 574.051 530.178 Q 570.101 530.026 567.139 529.95 L 567.139 529.95 L 567.139 529.95 Q 564.177 529.874 563.114 530.178 L 563.114 530.178 L 563.114 530.026 L 563.114 530.026 Q 563.265 520.303 563.189 509.898 L 563.189 509.898 L 563.189 509.898 Q 563.114 499.492 562.962 489.01 L 562.962 489.01 L 562.962 489.01 Q 562.81 478.528 562.734 468.122 L 562.734 468.122 L 562.734 468.122 Q 562.658 457.716 562.962 447.842 L 562.962 447.842 L 562.962 447.842 Q 560.835 446.93 557.341 446.475 L 557.341 446.475 L 557.341 446.475 Q 553.847 446.019 550.201 446.019 L 550.201 446.019 L 550.201 446.019 Q 546.555 446.019 543.365 446.399 L 543.365 446.399 L 543.365 446.399 Q 540.175 446.779 538.656 447.386 L 538.656 447.386 L 538.656 447.386 Q 538.808 458.02 538.96 466.755 L 538.96 466.755 L 538.96 466.755 Q 539.112 475.49 539.263 483.237 L 539.263 483.237 L 539.263 483.237 Q 539.415 490.985 539.415 498.428 L 539.415 498.428 L 539.415 498.428 Q 539.415 505.872 539.339 513.847 L 539.339 513.847 L 539.339 513.847 Q 539.263 521.823 538.96 531.013 L 538.96 531.013 L 538.96 531.013 Q 538.656 540.204 538.2 551.597 L 538.2 551.597 L 538.2 554.332 L 538.2 554.332 Q 556.581 554.635 567.595 554.635 L 567.595 554.635 L 567.595 554.635 Q 578.608 554.635 584.913 554.484 L 584.913 554.484 L 584.913 554.484 Q 591.217 554.332 593.876 554.18 L 593.876 554.18 L 593.876 554.18 Q 596.534 554.028 598.205 554.18 L 598.205 554.18 L 598.205 554.18 Q 599.876 554.18 600.787 554.104 L 600.787 554.104 L 600.787 554.104 Q 601.699 554.028 602.079 552.737 L 602.079 552.737 L 602.079 552.737 Q 602.459 551.445 602.459 548.635 L 602.459 548.635 L 602.459 548.635 Q 602.459 545.825 602.155 540.356 L 602.155 540.356 Z M 673.952 540.356 L 673.952 540.356 Q 673.8 539.14 673.876 537.545 L 673.876 537.545 L 673.876 537.545 Q 673.952 535.95 674.104 534.431 L 674.104 534.431 L 674.104 534.431 Q 674.256 532.76 674.256 531.089 L 674.256 531.089 L 674.256 531.089 Q 673.041 531.241 669.927 531.165 L 669.927 531.165 L 669.927 531.165 Q 666.812 531.089 662.787 530.937 L 662.787 530.937 L 662.787 530.937 Q 658.761 530.785 654.28 530.558 L 654.28 530.558 L 654.28 530.558 Q 649.798 530.33 645.849 530.178 L 645.849 530.178 L 645.849 530.178 Q 641.899 530.026 638.937 529.95 L 638.937 529.95 L 638.937 529.95 Q 635.974 529.874 634.911 530.178 L 634.911 530.178 L 634.911 530.026 L 634.911 530.026 Q 635.063 520.303 634.987 509.898 L 634.987 509.898 L 634.987 509.898 Q 634.911 499.492 634.759 489.01 L 634.759 489.01 L 634.759 489.01 Q 634.607 478.528 634.531 468.122 L 634.531 468.122 L 634.531 468.122 Q 634.455 457.716 634.759 447.842 L 634.759 447.842 L 634.759 447.842 Q 632.632 446.93 629.138 446.475 L 629.138 446.475 L 629.138 446.475 Q 625.644 446.019 621.999 446.019 L 621.999 446.019 L 621.999 446.019 Q 618.353 446.019 615.162 446.399 L 615.162 446.399 L 615.162 446.399 Q 611.972 446.779 610.453 447.386 L 610.453 447.386 L 610.453 447.386 Q 610.605 458.02 610.757 466.755 L 610.757 466.755 L 610.757 466.755 Q 610.909 475.49 611.061 483.237 L 611.061 483.237 L 611.061 483.237 Q 611.213 490.985 611.213 498.428 L 611.213 498.428 L 611.213 498.428 Q 611.213 505.872 611.137 513.847 L 611.137 513.847 L 611.137 513.847 Q 611.061 521.823 610.757 531.013 L 610.757 531.013 L 610.757 531.013 Q 610.453 540.204 609.998 551.597 L 609.998 551.597 L 609.998 554.332 L 609.998 554.332 Q 628.379 554.635 639.392 554.635 L 639.392 554.635 L 639.392 554.635 Q 650.406 554.635 656.71 554.484 L 656.71 554.484 L 656.71 554.484 Q 663.014 554.332 665.673 554.18 L 665.673 554.18 L 665.673 554.18 Q 668.331 554.028 670.002 554.18 L 670.002 554.18 L 670.002 554.18 Q 671.674 554.18 672.585 554.104 L 672.585 554.104 L 672.585 554.104 Q 673.496 554.028 673.876 552.737 L 673.876 552.737 L 673.876 552.737 Q 674.256 551.445 674.256 548.635 L 674.256 548.635 L 674.256 548.635 Q 674.256 545.825 673.952 540.356 L 673.952 540.356 Z M 731.318 500.859 L 731.318 500.859 Q 730.71 498.276 729.647 493.871 L 729.647 493.871 L 729.647 493.871 Q 728.584 489.466 727.368 484.149 L 727.368 484.149 L 727.368 484.149 Q 726.153 478.832 724.862 473.059 L 724.862 473.059 L 724.862 473.059 Q 723.571 467.287 722.431 462.197 L 722.431 462.197 L 722.431 462.197 Q 721.292 457.108 720.305 453.083 L 720.305 453.083 L 720.305 453.083 Q 719.317 449.057 718.861 447.082 L 718.861 447.082 L 718.861 447.082 Q 713.848 447.538 710.734 447.614 L 710.734 447.614 L 710.734 447.614 Q 707.62 447.69 705.645 447.69 L 705.645 447.69 L 705.645 447.69 Q 703.67 447.69 702.455 447.69 L 702.455 447.69 L 702.455 447.69 Q 701.24 447.69 700.176 447.842 L 700.176 447.842 L 700.176 447.842 Q 696.53 459.995 693.492 472.3 L 693.492 472.3 L 693.492 472.3 Q 690.454 484.604 687.871 495.998 L 687.871 495.998 L 687.871 495.998 Q 685.289 507.391 683.39 517.493 L 683.39 517.493 L 683.39 517.493 Q 681.491 527.595 680.124 535.343 L 680.124 535.343 L 680.124 535.343 Q 678.757 543.09 677.997 547.951 L 677.997 547.951 L 677.997 547.951 Q 677.238 552.813 676.934 553.876 L 676.934 553.876 L 676.934 553.876 Q 677.086 554.028 677.238 554.028 L 677.238 554.028 L 677.238 554.028 Q 687.568 553.876 692.429 554.18 L 692.429 554.18 L 692.429 554.18 Q 697.29 554.484 698.505 554.18 L 698.505 554.18 L 698.505 554.18 Q 698.657 554.18 698.733 554.104 L 698.733 554.104 L 698.733 554.104 Q 698.809 554.028 698.961 554.028 L 698.961 554.028 L 698.961 554.028 Q 700.328 551.445 701.088 548.103 L 701.088 548.103 L 701.088 548.103 Q 701.847 544.761 702.531 541.191 L 702.531 541.191 L 702.531 541.191 Q 703.214 537.621 703.898 534.355 L 703.898 534.355 L 703.898 534.355 Q 704.582 531.089 705.645 528.659 L 705.645 528.659 L 705.645 528.659 Q 707.316 528.659 708.304 528.583 L 708.304 528.583 L 708.304 528.583 Q 709.291 528.507 710.126 528.507 L 710.126 528.507 L 710.126 528.507 Q 710.962 528.507 712.025 528.507 L 712.025 528.507 L 712.025 528.507 Q 713.089 528.507 715.064 528.811 L 715.064 528.811 L 715.064 528.811 Q 716.127 531.089 717.038 534.279 L 717.038 534.279 L 717.038 534.279 Q 717.95 537.469 718.785 540.963 L 718.785 540.963 L 718.785 540.963 Q 719.621 544.457 720.456 547.799 L 720.456 547.799 L 720.456 547.799 Q 721.292 551.141 722.203 553.572 L 722.203 553.572 L 722.355 553.572 L 722.355 553.572 Q 727.216 554.635 732.685 554.863 L 732.685 554.863 L 732.685 554.863 Q 738.154 555.091 742.711 554.18 L 742.711 554.18 L 742.711 554.028 L 731.318 500.859 Z M 715.823 510.733 L 715.823 510.733 Q 712.937 510.733 710.05 510.809 L 710.05 510.809 L 710.05 510.809 Q 707.164 510.885 704.582 510.733 L 704.582 510.733 L 704.582 510.733 Q 705.645 502.986 706.481 496.302 L 706.481 496.302 L 706.481 496.302 Q 707.316 489.617 708 485.212 L 708 485.212 L 708 485.212 Q 708.683 480.807 709.519 479.363 L 709.519 479.363 L 709.519 479.363 Q 710.354 477.92 711.19 480.503 L 711.19 480.503 L 711.19 480.503 Q 712.025 483.085 713.165 490.377 L 713.165 490.377 L 713.165 490.377 Q 714.304 497.669 715.823 510.733 L 715.823 510.733 Z M 774.1 447.386 L 774.1 447.386 Q 767.264 447.538 763.695 447.31 L 763.695 447.31 L 763.695 447.31 Q 760.125 447.082 757.39 446.93 L 757.39 446.93 L 757.39 446.93 Q 756.327 446.93 754.124 446.703 L 754.124 446.703 L 754.124 446.703 Q 751.921 446.475 751.162 446.627 L 751.162 446.627 L 751.162 446.93 L 751.162 446.93 Q 749.795 459.691 749.871 472.983 L 749.871 472.983 L 749.871 472.983 Q 749.947 486.275 750.326 499.871 L 750.326 499.871 L 750.326 499.871 Q 750.706 513.467 750.858 527.291 L 750.858 527.291 L 750.858 527.291 Q 751.01 541.115 749.947 554.787 L 749.947 554.787 L 749.947 554.787 Q 751.466 554.332 755.567 554.559 L 755.567 554.559 L 755.567 554.559 Q 759.669 554.787 764.15 554.939 L 764.15 554.939 L 764.15 554.939 Q 768.632 555.091 772.505 554.863 L 772.505 554.863 L 772.505 554.863 Q 776.379 554.635 777.594 553.42 L 777.594 553.42 L 777.594 553.42 Q 776.835 540.508 776.683 527.291 L 776.683 527.291 L 776.683 527.291 Q 776.531 514.075 776.759 500.783 L 776.759 500.783 L 776.759 500.783 Q 776.987 487.491 777.367 474.274 L 777.367 474.274 L 777.367 474.274 Q 777.746 461.058 777.746 447.994 L 777.746 447.994 L 777.746 447.386 L 774.1 447.386 Z M 849.696 554.939 L 849.696 554.939 Q 852.278 554.939 853.342 554.635 L 853.342 554.635 L 853.342 554.635 Q 854.405 554.332 854.709 554.18 L 854.709 554.18 L 854.709 551.141 L 854.709 551.141 Q 854.709 548.103 854.633 545.065 L 854.633 545.065 L 854.633 545.065 Q 854.557 542.027 854.557 538.989 L 854.557 538.989 L 854.557 538.989 Q 854.557 534.735 854.633 530.633 L 854.633 530.633 L 854.633 530.633 Q 854.709 526.532 854.709 522.126 L 854.709 522.126 L 854.709 522.126 Q 854.709 515.594 854.709 509.062 L 854.709 509.062 L 854.709 509.062 Q 854.709 502.53 854.557 496.15 L 854.557 496.15 L 854.557 447.234 L 854.557 447.234 Q 850.151 446.323 844.531 446.323 L 844.531 446.323 L 844.531 446.323 Q 838.758 446.323 833.593 447.234 L 833.593 447.234 L 833.593 447.234 Q 833.441 451.032 833.365 454.298 L 833.365 454.298 L 833.365 454.298 Q 833.289 457.564 833.289 460.754 L 833.289 460.754 L 833.289 460.754 Q 833.289 466.223 833.517 471.464 L 833.517 471.464 L 833.517 471.464 Q 833.745 476.705 833.745 482.781 L 833.745 482.781 L 833.745 482.781 Q 833.745 485.364 833.441 488.098 L 833.441 488.098 L 833.441 488.098 Q 833.137 490.833 832.682 491.137 L 832.682 491.137 L 832.682 491.137 Q 832.53 491.137 831.618 489.39 L 831.618 489.39 L 831.618 489.39 Q 830.707 487.643 829.416 485.136 L 829.416 485.136 L 829.416 485.136 Q 828.124 482.63 826.605 479.515 L 826.605 479.515 L 826.605 479.515 Q 825.086 476.401 823.719 473.591 L 823.719 473.591 L 823.719 473.591 Q 822.352 470.78 821.288 468.654 L 821.288 468.654 L 821.288 468.654 Q 820.225 466.527 819.921 465.767 L 819.921 465.767 L 819.921 465.767 Q 818.554 462.577 817.566 460.526 L 817.566 460.526 L 817.566 460.526 Q 816.579 458.476 815.744 456.805 L 815.744 456.805 L 815.744 456.805 Q 814.908 455.134 813.997 453.311 L 813.997 453.311 L 813.997 453.311 Q 813.085 451.488 812.022 448.753 L 812.022 448.753 L 812.022 448.753 Q 812.022 448.45 810.427 448.146 L 810.427 448.146 L 810.427 448.146 Q 808.832 447.842 806.705 447.614 L 806.705 447.614 L 806.705 447.614 Q 804.578 447.386 802.451 447.31 L 802.451 447.31 L 802.451 447.31 Q 800.325 447.234 799.413 447.234 L 799.413 447.234 L 799.413 447.234 Q 797.59 447.234 795.843 447.386 L 795.843 447.386 L 795.843 447.386 Q 794.096 447.538 792.577 447.842 L 792.577 447.842 L 792.577 447.842 Q 791.818 457.564 791.514 467.818 L 791.514 467.818 L 791.514 467.818 Q 791.21 478.072 791.21 488.554 L 791.21 488.554 L 791.21 488.554 Q 791.21 502.834 791.438 515.898 L 791.438 515.898 L 791.438 515.898 Q 791.666 528.962 791.666 543.394 L 791.666 543.394 L 791.666 554.028 L 791.666 554.028 Q 795.16 554.028 798.881 554.484 L 798.881 554.484 L 798.881 554.484 Q 802.603 554.939 806.249 554.939 L 806.249 554.939 L 806.249 554.939 Q 807.92 554.939 809.591 554.787 L 809.591 554.787 L 809.591 554.787 Q 811.262 554.635 812.933 554.18 L 812.933 554.18 L 812.933 554.18 Q 812.781 551.597 812.781 548.331 L 812.781 548.331 L 812.781 548.331 Q 812.781 545.065 812.781 541.571 L 812.781 541.571 L 812.781 541.571 Q 812.781 535.191 812.857 528.355 L 812.857 528.355 L 812.857 528.355 Q 812.933 521.519 813.085 515.898 L 813.085 515.898 L 813.085 515.898 Q 813.237 510.277 813.465 506.632 L 813.465 506.632 L 813.465 506.632 Q 813.693 502.986 813.845 502.986 L 813.845 502.986 L 813.845 502.986 Q 814.148 502.986 814.68 504.429 L 814.68 504.429 L 814.68 504.429 Q 815.212 505.872 815.82 507.543 L 815.82 507.543 L 817.339 512.1 L 817.339 512.1 Q 820.833 521.823 825.77 532.38 L 825.77 532.38 L 825.77 532.38 Q 830.707 542.938 835.72 554.18 L 835.72 554.18 L 835.72 554.18 Q 838.758 554.18 842.708 554.559 L 842.708 554.559 L 842.708 554.559 Q 846.657 554.939 849.696 554.939 L 849.696 554.939 Z"/></svg>