<?xml version="1.0" encoding="UTF-8" standalone="no"?>
<!-- Generator: Gravit.io -->
<svg xmlns="http://www.w3.org/2000/svg" xmlns:xlink="http://www.w3.org/1999/xlink" style="isolation:isolate" viewBox="0 0 1280 640" width="1280pt" height="640pt"><defs><clipPath id="_clipPath_qrrTjl43GS5Kxmud0LI8ib9F9L3rPqYh"><rect width="1280" height="640"/></clipPath></defs><g clip-path="url(#_clipPath_qrrTjl43GS5Kxmud0LI8ib9F9L3rPqYh)"><g><g><g><path d=" M 620.003 362.121 L 620.003 371.975 C 620.003 377.509 624.496 382.001 630.03 382.001 L 630.057 382.001 C 635.59 382.001 640.104 377.509 640.129 371.975 L 640.174 362.121 L 640.187 354.121 C 640.197 347.498 645.154 342.121 651.249 342.121 L 651.249 342.121 C 657.344 342.121 662.293 347.498 662.293 354.121 L 662.293 362.121 L 662.293 371.975 C 662.293 377.509 666.786 382.001 672.32 382.001 L 672.346 382.001 C 677.88 382.001 682.373 377.509 682.373 371.975 L 682.373 362.121 L 682.373 354.121 C 682.373 347.498 687.322 342.121 693.417 342.121 L 693.417 342.121 C 699.512 342.121 704.461 347.498 704.461 354.121 L 704.461 362.121 L 704.461 362.121 C 704.461 373.093 712.248 382.001 721.84 382.001 L 721.84 382.001 C 730.152 382.001 733.762 379.541 729.896 376.099 C 729.896 376.099 725.423 366.059 725.423 355.967 L 725.484 346.956 C 725.484 328.349 735.61 313.243 754.267 313.243 L 761.628 313.243 C 769.94 313.243 776.688 306.513 776.688 298.223 L 776.688 257.168 C 776.688 188.087 720.453 132.001 651.188 132.001 C 627.851 132.001 605.992 138.368 587.266 149.454 C 573.082 157.85 560.696 168.954 550.823 182.048 C 545.008 189.76 540.066 198.163 536.143 207.11 C 529.419 222.443 525.688 239.375 525.688 257.168 L 525.688 298.223 C 525.688 306.513 532.436 313.243 540.748 313.243 L 548.11 313.243 C 566.766 313.243 576.892 328.349 576.892 346.956 L 576.831 355.967 C 576.831 366.059 572.48 376.099 572.48 376.099 C 568.615 379.541 572.224 382.001 580.536 382.001 L 580.536 382.001 C 590.128 382.001 597.915 373.093 597.915 362.121 L 597.915 362.121 L 597.915 354.121 C 597.915 347.498 602.864 342.121 608.959 342.121 L 608.959 342.121 C 615.055 342.121 620.003 347.498 620.003 354.121 L 620.003 362.121 Z " fill="rgb(255,239,99)" vector-effect="non-scaling-stroke" stroke-width="10" stroke="rgb(46,46,46)" stroke-linejoin="round" stroke-linecap="round" stroke-miterlimit="3"/><g><g><path d=" M 674.624 283.07 C 682.167 290.612 692.583 295.28 704.081 295.28 C 727.079 295.28 745.753 276.611 745.748 253.613 L 674.624 283.07 Z " fill="rgb(46,46,46)" vector-effect="non-scaling-stroke" stroke-width="10" stroke="rgb(46,46,46)" stroke-linejoin="round" stroke-linecap="round" stroke-miterlimit="3"/><path d=" M 626.873 283.07 C 619.331 290.612 608.914 295.28 597.416 295.28 C 574.418 295.28 555.745 276.611 555.749 253.613 L 626.873 283.07 Z " fill="rgb(46,46,46)" vector-effect="non-scaling-stroke" stroke-width="10" stroke="rgb(46,46,46)" stroke-linejoin="round" stroke-linecap="round" stroke-miterlimit="3"/></g><path d=" M 642.713 320.754 L 650.749 320.754 L 658.784 320.754 C 668.209 320.754 672.034 314.128 667.322 305.966 L 663.304 299.007 L 659.287 292.048 C 654.574 283.886 646.923 283.886 642.211 292.048 L 638.193 299.007 L 634.175 305.966 C 629.463 314.128 633.289 320.754 642.713 320.754 Z " fill="rgb(46,46,46)"/></g></g></g><g><path d=" M 642.713 117.068 L 650.749 117.068 L 658.784 117.068 C 668.209 117.068 672.034 110.442 667.322 102.28 L 663.304 95.321 L 659.287 88.362 C 654.574 80.201 646.923 80.201 642.211 88.362 L 638.193 95.321 L 634.175 102.28 C 629.463 110.442 633.289 117.068 642.713 117.068 Z " fill="rgb(46,46,46)"/><path d=" M 747.42 153.573 L 753.102 159.255 L 758.784 164.937 C 765.448 171.601 772.839 169.621 775.278 160.518 L 777.358 152.756 L 779.437 144.994 C 781.877 135.891 776.466 130.481 767.363 132.92 L 759.601 135 L 751.839 137.079 C 742.736 139.519 740.756 146.909 747.42 153.573 Z " fill="rgb(46,46,46)"/><path d=" M 542.714 164.937 L 548.396 159.255 L 554.078 153.573 C 560.742 146.909 558.761 139.519 549.658 137.079 L 541.896 135 L 534.134 132.92 C 525.031 130.481 519.621 135.891 522.06 144.994 L 524.14 152.756 L 526.22 160.518 C 528.659 169.621 536.049 171.601 542.714 164.937 Z " fill="rgb(46,46,46)"/></g></g><path d=" M 511.454 422.49 L 511.454 422.49 Q 509.049 422.066 506.431 421.995 L 506.431 421.995 L 506.431 421.995 Q 503.813 421.924 501.195 421.924 L 501.195 421.924 L 501.195 421.924 Q 498.577 421.924 496.03 421.853 L 496.03 421.853 L 496.03 421.853 Q 493.483 421.783 491.078 421.217 L 491.078 421.217 L 491.078 421.217 Q 490.795 421.217 490.795 421.5 L 490.795 421.5 L 490.795 421.5 Q 489.238 427.443 488.106 434.235 L 488.106 434.235 L 488.106 434.235 Q 486.974 441.027 485.7 449.093 L 485.7 449.093 L 485.7 449.093 Q 484.427 457.159 482.729 466.71 L 482.729 466.71 L 482.729 466.71 Q 481.031 476.262 478.342 487.724 L 478.342 487.724 L 478.342 487.724 Q 475.512 476.262 474.168 465.508 L 474.168 465.508 L 474.168 465.508 Q 472.823 454.753 472.257 445.838 L 472.257 445.838 L 472.257 445.838 Q 471.691 436.924 471.55 430.556 L 471.55 430.556 L 471.55 430.556 Q 471.408 424.188 470.842 421.358 L 470.842 421.358 L 470.842 421.358 Q 469.71 421.075 466.739 420.934 L 466.739 420.934 L 466.739 420.934 Q 463.767 420.792 460.513 420.863 L 460.513 420.863 L 460.513 420.863 Q 457.258 420.934 454.428 421.358 L 454.428 421.358 L 454.428 421.358 Q 451.598 421.783 450.749 422.773 L 450.749 422.773 L 450.749 422.915 L 450.749 422.915 Q 452.73 447.395 456.833 471.521 L 456.833 471.521 L 456.833 471.521 Q 460.937 495.648 467.305 518.572 L 467.305 518.572 L 467.305 518.572 Q 469.569 519.279 472.753 519.491 L 472.753 519.491 L 472.753 519.491 Q 475.937 519.704 479.05 519.704 L 479.05 519.704 L 479.05 519.704 Q 482.021 519.704 484.427 519.421 L 484.427 519.421 L 484.427 519.421 Q 486.832 519.138 487.964 519.138 L 487.964 519.138 L 487.964 519.138 Q 491.361 506.827 494.474 494.87 L 494.474 494.87 L 494.474 494.87 Q 497.587 482.913 500.558 471.026 L 500.558 471.026 L 500.558 471.026 Q 503.53 459.14 506.289 447.112 L 506.289 447.112 L 506.289 447.112 Q 509.049 435.084 511.454 422.49 L 511.454 422.49 Z  M 540.41 419.802 L 540.41 419.802 Q 534.042 419.943 530.717 419.731 L 530.717 419.731 L 530.717 419.731 Q 527.391 419.519 524.844 419.377 L 524.844 419.377 L 524.844 419.377 Q 523.854 419.377 521.802 419.165 L 521.802 419.165 L 521.802 419.165 Q 519.75 418.953 519.043 419.094 L 519.043 419.094 L 519.043 419.377 L 519.043 419.377 Q 517.769 431.263 517.84 443.645 L 517.84 443.645 L 517.84 443.645 Q 517.911 456.027 518.264 468.691 L 518.264 468.691 L 518.264 468.691 Q 518.618 481.356 518.76 494.233 L 518.76 494.233 L 518.76 494.233 Q 518.901 507.11 517.911 519.845 L 517.911 519.845 L 517.911 519.845 Q 519.326 519.421 523.146 519.633 L 523.146 519.633 L 523.146 519.633 Q 526.967 519.845 531.141 519.987 L 531.141 519.987 L 531.141 519.987 Q 535.316 520.128 538.924 519.916 L 538.924 519.916 L 538.924 519.916 Q 542.532 519.704 543.664 518.572 L 543.664 518.572 L 543.664 518.572 Q 542.957 506.544 542.815 494.233 L 542.815 494.233 L 542.815 494.233 Q 542.674 481.922 542.886 469.54 L 542.886 469.54 L 542.886 469.54 Q 543.098 457.159 543.452 444.848 L 543.452 444.848 L 543.452 444.848 Q 543.806 432.537 543.806 420.368 L 543.806 420.368 L 543.806 419.802 L 540.41 419.802 Z  M 615.496 506.402 L 615.496 506.402 Q 615.355 505.27 615.425 503.784 L 615.425 503.784 L 615.425 503.784 Q 615.496 502.299 615.638 500.884 L 615.638 500.884 L 615.638 500.884 Q 615.779 499.327 615.779 497.771 L 615.779 497.771 L 615.779 497.771 Q 614.647 497.912 611.746 497.841 L 611.746 497.841 L 611.746 497.841 Q 608.845 497.771 605.095 497.629 L 605.095 497.629 L 605.095 497.629 Q 601.346 497.488 597.171 497.275 L 597.171 497.275 L 597.171 497.275 Q 592.997 497.063 589.318 496.921 L 589.318 496.921 L 589.318 496.921 Q 585.639 496.78 582.879 496.709 L 582.879 496.709 L 582.879 496.709 Q 580.12 496.638 579.129 496.921 L 579.129 496.921 L 579.129 496.78 L 579.129 496.78 Q 579.271 487.724 579.2 478.031 L 579.2 478.031 L 579.2 478.031 Q 579.129 468.338 578.988 458.574 L 578.988 458.574 L 578.988 458.574 Q 578.846 448.81 578.776 439.117 L 578.776 439.117 L 578.776 439.117 Q 578.705 429.424 578.988 420.226 L 578.988 420.226 L 578.988 420.226 Q 577.007 419.377 573.752 418.953 L 573.752 418.953 L 573.752 418.953 Q 570.498 418.528 567.102 418.528 L 567.102 418.528 L 567.102 418.528 Q 563.705 418.528 560.734 418.882 L 560.734 418.882 L 560.734 418.882 Q 557.762 419.236 556.347 419.802 L 556.347 419.802 L 556.347 419.802 Q 556.489 429.707 556.63 437.843 L 556.63 437.843 L 556.63 437.843 Q 556.772 445.98 556.913 453.197 L 556.913 453.197 L 556.913 453.197 Q 557.055 460.413 557.055 467.347 L 557.055 467.347 L 557.055 467.347 Q 557.055 474.281 556.984 481.71 L 556.984 481.71 L 556.984 481.71 Q 556.913 489.139 556.63 497.7 L 556.63 497.7 L 556.63 497.7 Q 556.347 506.261 555.923 516.874 L 555.923 516.874 L 555.923 519.421 L 555.923 519.421 Q 573.045 519.704 583.304 519.704 L 583.304 519.704 L 583.304 519.704 Q 593.563 519.704 599.435 519.562 L 599.435 519.562 L 599.435 519.562 Q 605.308 519.421 607.784 519.279 L 607.784 519.279 L 607.784 519.279 Q 610.26 519.138 611.817 519.279 L 611.817 519.279 L 611.817 519.279 Q 613.373 519.279 614.222 519.208 L 614.222 519.208 L 614.222 519.208 Q 615.072 519.138 615.425 517.935 L 615.425 517.935 L 615.425 517.935 Q 615.779 516.732 615.779 514.114 L 615.779 514.114 L 615.779 514.114 Q 615.779 511.496 615.496 506.402 L 615.496 506.402 Z  M 682.375 506.402 L 682.375 506.402 Q 682.233 505.27 682.304 503.784 L 682.304 503.784 L 682.304 503.784 Q 682.375 502.299 682.516 500.884 L 682.516 500.884 L 682.516 500.884 Q 682.658 499.327 682.658 497.771 L 682.658 497.771 L 682.658 497.771 Q 681.526 497.912 678.625 497.841 L 678.625 497.841 L 678.625 497.841 Q 675.724 497.771 671.974 497.629 L 671.974 497.629 L 671.974 497.629 Q 668.225 497.488 664.05 497.275 L 664.05 497.275 L 664.05 497.275 Q 659.876 497.063 656.197 496.921 L 656.197 496.921 L 656.197 496.921 Q 652.518 496.78 649.758 496.709 L 649.758 496.709 L 649.758 496.709 Q 646.999 496.638 646.008 496.921 L 646.008 496.921 L 646.008 496.78 L 646.008 496.78 Q 646.15 487.724 646.079 478.031 L 646.079 478.031 L 646.079 478.031 Q 646.008 468.338 645.867 458.574 L 645.867 458.574 L 645.867 458.574 Q 645.725 448.81 645.655 439.117 L 645.655 439.117 L 645.655 439.117 Q 645.584 429.424 645.867 420.226 L 645.867 420.226 L 645.867 420.226 Q 643.886 419.377 640.631 418.953 L 640.631 418.953 L 640.631 418.953 Q 637.377 418.528 633.98 418.528 L 633.98 418.528 L 633.98 418.528 Q 630.584 418.528 627.613 418.882 L 627.613 418.882 L 627.613 418.882 Q 624.641 419.236 623.226 419.802 L 623.226 419.802 L 623.226 419.802 Q 623.368 429.707 623.509 437.843 L 623.509 437.843 L 623.509 437.843 Q 623.651 445.98 623.792 453.197 L 623.792 453.197 L 623.792 453.197 Q 623.934 460.413 623.934 467.347 L 623.934 467.347 L 623.934 467.347 Q 623.934 474.281 623.863 481.71 L 623.863 481.71 L 623.863 481.71 Q 623.792 489.139 623.509 497.7 L 623.509 497.7 L 623.509 497.7 Q 623.226 506.261 622.802 516.874 L 622.802 516.874 L 622.802 519.421 L 622.802 519.421 Q 639.924 519.704 650.183 519.704 L 650.183 519.704 L 650.183 519.704 Q 660.442 519.704 666.314 519.562 L 666.314 519.562 L 666.314 519.562 Q 672.187 519.421 674.663 519.279 L 674.663 519.279 L 674.663 519.279 Q 677.139 519.138 678.696 519.279 L 678.696 519.279 L 678.696 519.279 Q 680.252 519.279 681.101 519.208 L 681.101 519.208 L 681.101 519.208 Q 681.95 519.138 682.304 517.935 L 682.304 517.935 L 682.304 517.935 Q 682.658 516.732 682.658 514.114 L 682.658 514.114 L 682.658 514.114 Q 682.658 511.496 682.375 506.402 L 682.375 506.402 Z  M 735.811 469.611 L 735.811 469.611 Q 735.245 467.206 734.254 463.102 L 734.254 463.102 L 734.254 463.102 Q 733.264 458.998 732.132 454.046 L 732.132 454.046 L 732.132 454.046 Q 731 449.093 729.797 443.716 L 729.797 443.716 L 729.797 443.716 Q 728.594 438.339 727.533 433.598 L 727.533 433.598 L 727.533 433.598 Q 726.472 428.858 725.552 425.108 L 725.552 425.108 L 725.552 425.108 Q 724.632 421.358 724.208 419.519 L 724.208 419.519 L 724.208 419.519 Q 719.538 419.943 716.637 420.014 L 716.637 420.014 L 716.637 420.014 Q 713.736 420.085 711.897 420.085 L 711.897 420.085 L 711.897 420.085 Q 710.057 420.085 708.925 420.085 L 708.925 420.085 L 708.925 420.085 Q 707.793 420.085 706.803 420.226 L 706.803 420.226 L 706.803 420.226 Q 703.406 431.546 700.576 443.008 L 700.576 443.008 L 700.576 443.008 Q 697.746 454.47 695.341 465.083 L 695.341 465.083 L 695.341 465.083 Q 692.935 475.696 691.166 485.106 L 691.166 485.106 L 691.166 485.106 Q 689.398 494.516 688.124 501.733 L 688.124 501.733 L 688.124 501.733 Q 686.85 508.949 686.143 513.477 L 686.143 513.477 L 686.143 513.477 Q 685.435 518.006 685.152 518.996 L 685.152 518.996 L 685.152 518.996 Q 685.294 519.138 685.435 519.138 L 685.435 519.138 L 685.435 519.138 Q 695.058 518.996 699.586 519.279 L 699.586 519.279 L 699.586 519.279 Q 704.114 519.562 705.246 519.279 L 705.246 519.279 L 705.246 519.279 Q 705.388 519.279 705.458 519.208 L 705.458 519.208 L 705.458 519.208 Q 705.529 519.138 705.671 519.138 L 705.671 519.138 L 705.671 519.138 Q 706.944 516.732 707.652 513.619 L 707.652 513.619 L 707.652 513.619 Q 708.359 510.506 708.996 507.181 L 708.996 507.181 L 708.996 507.181 Q 709.633 503.855 710.269 500.813 L 710.269 500.813 L 710.269 500.813 Q 710.906 497.771 711.897 495.506 L 711.897 495.506 L 711.897 495.506 Q 713.453 495.506 714.373 495.436 L 714.373 495.436 L 714.373 495.436 Q 715.293 495.365 716.071 495.365 L 716.071 495.365 L 716.071 495.365 Q 716.849 495.365 717.84 495.365 L 717.84 495.365 L 717.84 495.365 Q 718.83 495.365 720.67 495.648 L 720.67 495.648 L 720.67 495.648 Q 721.66 497.771 722.51 500.742 L 722.51 500.742 L 722.51 500.742 Q 723.359 503.714 724.137 506.968 L 724.137 506.968 L 724.137 506.968 Q 724.915 510.223 725.693 513.336 L 725.693 513.336 L 725.693 513.336 Q 726.472 516.449 727.321 518.713 L 727.321 518.713 L 727.462 518.713 L 727.462 518.713 Q 731.99 519.704 737.085 519.916 L 737.085 519.916 L 737.085 519.916 Q 742.179 520.128 746.424 519.279 L 746.424 519.279 L 746.424 519.138 L 735.811 469.611 Z  M 721.377 478.809 L 721.377 478.809 Q 718.689 478.809 716 478.88 L 716 478.88 L 716 478.88 Q 713.312 478.95 710.906 478.809 L 710.906 478.809 L 710.906 478.809 Q 711.897 471.592 712.675 465.366 L 712.675 465.366 L 712.675 465.366 Q 713.453 459.14 714.09 455.036 L 714.09 455.036 L 714.09 455.036 Q 714.727 450.933 715.505 449.588 L 715.505 449.588 L 715.505 449.588 Q 716.283 448.244 717.062 450.65 L 717.062 450.65 L 717.062 450.65 Q 717.84 453.055 718.901 459.847 L 718.901 459.847 L 718.901 459.847 Q 719.962 466.64 721.377 478.809 L 721.377 478.809 Z  M 775.663 419.802 L 775.663 419.802 Q 769.295 419.943 765.969 419.731 L 765.969 419.731 L 765.969 419.731 Q 762.644 419.519 760.097 419.377 L 760.097 419.377 L 760.097 419.377 Q 759.106 419.377 757.055 419.165 L 757.055 419.165 L 757.055 419.165 Q 755.003 418.953 754.295 419.094 L 754.295 419.094 L 754.295 419.377 L 754.295 419.377 Q 753.022 431.263 753.093 443.645 L 753.093 443.645 L 753.093 443.645 Q 753.163 456.027 753.517 468.691 L 753.517 468.691 L 753.517 468.691 Q 753.871 481.356 754.012 494.233 L 754.012 494.233 L 754.012 494.233 Q 754.154 507.11 753.163 519.845 L 753.163 519.845 L 753.163 519.845 Q 754.578 519.421 758.399 519.633 L 758.399 519.633 L 758.399 519.633 Q 762.22 519.845 766.394 519.987 L 766.394 519.987 L 766.394 519.987 Q 770.568 520.128 774.177 519.916 L 774.177 519.916 L 774.177 519.916 Q 777.785 519.704 778.917 518.572 L 778.917 518.572 L 778.917 518.572 Q 778.21 506.544 778.068 494.233 L 778.068 494.233 L 778.068 494.233 Q 777.927 481.922 778.139 469.54 L 778.139 469.54 L 778.139 469.54 Q 778.351 457.159 778.705 444.848 L 778.705 444.848 L 778.705 444.848 Q 779.059 432.537 779.059 420.368 L 779.059 420.368 L 779.059 419.802 L 775.663 419.802 Z  M 846.079 519.987 L 846.079 519.987 Q 848.485 519.987 849.475 519.704 L 849.475 519.704 L 849.475 519.704 Q 850.466 519.421 850.749 519.279 L 850.749 519.279 L 850.749 516.449 L 850.749 516.449 Q 850.749 513.619 850.678 510.789 L 850.678 510.789 L 850.678 510.789 Q 850.607 507.959 850.607 505.129 L 850.607 505.129 L 850.607 505.129 Q 850.607 501.167 850.678 497.346 L 850.678 497.346 L 850.678 497.346 Q 850.749 493.525 850.749 489.422 L 850.749 489.422 L 850.749 489.422 Q 850.749 483.337 850.749 477.252 L 850.749 477.252 L 850.749 477.252 Q 850.749 471.168 850.607 465.225 L 850.607 465.225 L 850.607 419.66 L 850.607 419.66 Q 846.504 418.811 841.268 418.811 L 841.268 418.811 L 841.268 418.811 Q 835.891 418.811 831.08 419.66 L 831.08 419.66 L 831.08 419.66 Q 830.938 423.198 830.867 426.24 L 830.867 426.24 L 830.867 426.24 Q 830.797 429.282 830.797 432.254 L 830.797 432.254 L 830.797 432.254 Q 830.797 437.348 831.009 442.23 L 831.009 442.23 L 831.009 442.23 Q 831.221 447.112 831.221 452.772 L 831.221 452.772 L 831.221 452.772 Q 831.221 455.178 830.938 457.725 L 830.938 457.725 L 830.938 457.725 Q 830.655 460.272 830.231 460.555 L 830.231 460.555 L 830.231 460.555 Q 830.089 460.555 829.24 458.928 L 829.24 458.928 L 829.24 458.928 Q 828.391 457.3 827.188 454.965 L 827.188 454.965 L 827.188 454.965 Q 825.986 452.631 824.57 449.73 L 824.57 449.73 L 824.57 449.73 Q 823.155 446.829 821.882 444.211 L 821.882 444.211 L 821.882 444.211 Q 820.608 441.593 819.618 439.612 L 819.618 439.612 L 819.618 439.612 Q 818.627 437.631 818.344 436.924 L 818.344 436.924 L 818.344 436.924 Q 817.071 433.952 816.151 432.042 L 816.151 432.042 L 816.151 432.042 Q 815.231 430.131 814.453 428.575 L 814.453 428.575 L 814.453 428.575 Q 813.675 427.018 812.826 425.32 L 812.826 425.32 L 812.826 425.32 Q 811.977 423.622 810.986 421.075 L 810.986 421.075 L 810.986 421.075 Q 810.986 420.792 809.5 420.509 L 809.5 420.509 L 809.5 420.509 Q 808.014 420.226 806.033 420.014 L 806.033 420.014 L 806.033 420.014 Q 804.052 419.802 802.071 419.731 L 802.071 419.731 L 802.071 419.731 Q 800.09 419.66 799.241 419.66 L 799.241 419.66 L 799.241 419.66 Q 797.543 419.66 795.916 419.802 L 795.916 419.802 L 795.916 419.802 Q 794.288 419.943 792.873 420.226 L 792.873 420.226 L 792.873 420.226 Q 792.166 429.282 791.883 438.834 L 791.883 438.834 L 791.883 438.834 Q 791.6 448.385 791.6 458.149 L 791.6 458.149 L 791.6 458.149 Q 791.6 471.451 791.812 483.62 L 791.812 483.62 L 791.812 483.62 Q 792.024 495.789 792.024 509.232 L 792.024 509.232 L 792.024 519.138 L 792.024 519.138 Q 795.279 519.138 798.746 519.562 L 798.746 519.562 L 798.746 519.562 Q 802.213 519.987 805.609 519.987 L 805.609 519.987 L 805.609 519.987 Q 807.165 519.987 808.722 519.845 L 808.722 519.845 L 808.722 519.845 Q 810.278 519.704 811.835 519.279 L 811.835 519.279 L 811.835 519.279 Q 811.694 516.874 811.694 513.831 L 811.694 513.831 L 811.694 513.831 Q 811.694 510.789 811.694 507.534 L 811.694 507.534 L 811.694 507.534 Q 811.694 501.591 811.764 495.223 L 811.764 495.223 L 811.764 495.223 Q 811.835 488.856 811.977 483.62 L 811.977 483.62 L 811.977 483.62 Q 812.118 478.384 812.33 474.988 L 812.33 474.988 L 812.33 474.988 Q 812.543 471.592 812.684 471.592 L 812.684 471.592 L 812.684 471.592 Q 812.967 471.592 813.462 472.936 L 813.462 472.936 L 813.462 472.936 Q 813.958 474.281 814.524 475.837 L 814.524 475.837 L 815.939 480.082 L 815.939 480.082 Q 819.193 489.139 823.792 498.973 L 823.792 498.973 L 823.792 498.973 Q 828.391 508.808 833.061 519.279 L 833.061 519.279 L 833.061 519.279 Q 835.891 519.279 839.57 519.633 L 839.57 519.633 L 839.57 519.633 Q 843.249 519.987 846.079 519.987 L 846.079 519.987 Z " fill="rgb(46,46,46)"/></g></svg>