<?xml version="1.0" encoding="UTF-8" standalone="no"?>
<!-- Generator: Gravit.io -->
<svg xmlns="http://www.w3.org/2000/svg" xmlns:xlink="http://www.w3.org/1999/xlink" style="isolation:isolate" viewBox="0 0 500 500" width="500pt" height="500pt"><defs><clipPath id="_clipPath_42ZwIwUhJHMDxxiIaKKyIUKjbOku0Kj0"><rect width="500" height="500"/></clipPath></defs><g clip-path="url(#_clipPath_42ZwIwUhJHMDxxiIaKKyIUKjbOku0Kj0)"><g><g><g><g><path d=" M 219.255 310.979 L 219.255 320.833 C 219.255 326.367 223.747 330.859 229.281 330.859 L 229.308 330.859 C 234.842 330.859 239.355 326.367 239.381 320.833 L 239.426 310.979 L 239.438 302.979 C 239.448 296.356 244.405 290.979 250.5 290.979 L 250.5 290.979 C 256.596 290.979 261.544 296.356 261.544 302.979 L 261.544 310.979 L 261.544 320.833 C 261.544 326.367 266.037 330.859 271.571 330.859 L 271.598 330.859 C 277.131 330.859 281.624 326.367 281.624 320.833 L 281.624 310.979 L 281.624 302.979 C 281.624 296.356 286.573 290.979 292.668 290.979 L 292.668 290.979 C 298.764 290.979 303.712 296.356 303.712 302.979 L 303.712 310.979 L 303.712 310.979 C 303.712 321.951 311.499 330.859 321.091 330.859 L 321.091 330.859 C 329.403 330.859 333.013 328.399 329.148 324.956 C 329.148 324.956 324.675 314.916 324.675 304.825 L 324.735 295.814 C 324.735 277.207 334.862 262.101 353.518 262.101 L 360.879 262.101 C 369.191 262.101 375.939 255.371 375.939 247.081 L 375.939 206.026 C 375.939 136.945 319.705 80.859 250.439 80.859 C 227.102 80.859 205.243 87.226 186.517 98.312 C 172.334 106.708 159.947 117.811 150.074 130.905 C 144.26 138.618 139.317 147.021 135.394 155.968 C 128.67 171.301 124.939 188.232 124.939 206.026 L 124.939 247.081 C 124.939 255.371 131.688 262.101 139.999 262.101 L 147.361 262.101 C 166.017 262.101 176.143 277.207 176.143 295.814 L 176.083 304.825 C 176.083 314.916 171.731 324.956 171.731 324.956 C 167.866 328.399 171.476 330.859 179.788 330.859 L 179.788 330.859 C 189.379 330.859 197.167 321.951 197.167 310.979 L 197.167 310.979 L 197.167 302.979 C 197.167 296.356 202.115 290.979 208.211 290.979 L 208.211 290.979 C 214.306 290.979 219.255 296.356 219.255 302.979 L 219.255 310.979 Z " fill="rgb(255,239,99)" vector-effect="non-scaling-stroke" stroke-width="10" stroke="rgb(46,46,46)" stroke-linejoin="round" stroke-linecap="round" stroke-miterlimit="3"/><g><g><path d=" M 273.876 231.928 C 281.418 239.47 291.834 244.137 303.333 244.137 C 326.33 244.137 345.004 225.468 344.999 202.471 L 273.876 231.928 Z " fill="rgb(46,46,46)" vector-effect="non-scaling-stroke" stroke-width="10" stroke="rgb(46,46,46)" stroke-linejoin="round" stroke-linecap="round" stroke-miterlimit="3"/><path d=" M 226.124 231.928 C 218.582 239.47 208.166 244.137 196.667 244.137 C 173.67 244.137 154.996 225.468 155.001 202.471 L 226.124 231.928 Z " fill="rgb(46,46,46)" vector-effect="non-scaling-stroke" stroke-width="10" stroke="rgb(46,46,46)" stroke-linejoin="round" stroke-linecap="round" stroke-miterlimit="3"/></g><path d=" M 241.964 269.612 L 250 269.612 L 258.036 269.612 C 267.46 269.612 271.286 262.986 266.573 254.824 L 262.556 247.865 L 258.538 240.906 C 253.826 232.744 246.174 232.744 241.462 240.906 L 237.444 247.865 L 233.427 254.824 C 228.714 262.986 232.54 269.612 241.964 269.612 Z " fill="rgb(46,46,46)"/></g></g></g><g><path d=" M 241.964 65.926 L 250 65.926 L 258.036 65.926 C 267.46 65.926 271.286 59.3 266.573 51.138 L 262.556 44.179 L 258.538 37.22 C 253.826 29.058 246.174 29.058 241.462 37.22 L 237.444 44.179 L 233.427 51.138 C 228.714 59.3 232.54 65.926 241.964 65.926 Z " fill="rgb(46,46,46)"/><path d=" M 346.671 102.431 L 352.353 108.113 L 358.035 113.795 C 364.699 120.459 372.09 118.479 374.529 109.376 L 376.609 101.614 L 378.689 93.852 C 381.128 84.749 375.718 79.339 366.614 81.778 L 358.852 83.858 L 351.091 85.937 C 341.987 88.377 340.007 95.767 346.671 102.431 Z " fill="rgb(46,46,46)"/><path d=" M 141.965 113.795 L 147.647 108.113 L 153.329 102.431 C 159.993 95.767 158.013 88.377 148.909 85.937 L 141.148 83.858 L 133.386 81.778 C 124.282 79.339 118.872 84.749 121.311 93.852 L 123.391 101.614 L 125.471 109.376 C 127.91 118.479 135.301 120.459 141.965 113.795 Z " fill="rgb(46,46,46)"/></g></g><path d=" M 110.705 371.348 L 110.705 371.348 Q 108.3 370.924 105.682 370.853 L 105.682 370.853 L 105.682 370.853 Q 103.064 370.782 100.446 370.782 L 100.446 370.782 L 100.446 370.782 Q 97.828 370.782 95.281 370.711 L 95.281 370.711 L 95.281 370.711 Q 92.734 370.641 90.329 370.075 L 90.329 370.075 L 90.329 370.075 Q 90.046 370.075 90.046 370.358 L 90.046 370.358 L 90.046 370.358 Q 88.489 376.301 87.357 383.093 L 87.357 383.093 L 87.357 383.093 Q 86.225 389.885 84.952 397.951 L 84.952 397.951 L 84.952 397.951 Q 83.678 406.017 81.98 415.568 L 81.98 415.568 L 81.98 415.568 Q 80.282 425.12 77.593 436.582 L 77.593 436.582 L 77.593 436.582 Q 74.763 425.12 73.419 414.365 L 73.419 414.365 L 73.419 414.365 Q 72.075 403.611 71.509 394.696 L 71.509 394.696 L 71.509 394.696 Q 70.943 385.781 70.801 379.414 L 70.801 379.414 L 70.801 379.414 Q 70.66 373.046 70.094 370.216 L 70.094 370.216 L 70.094 370.216 Q 68.962 369.933 65.99 369.792 L 65.99 369.792 L 65.99 369.792 Q 63.018 369.65 59.764 369.721 L 59.764 369.721 L 59.764 369.721 Q 56.509 369.792 53.679 370.216 L 53.679 370.216 L 53.679 370.216 Q 50.849 370.641 50 371.631 L 50 371.631 L 50 371.773 L 50 371.773 Q 51.981 396.253 56.085 420.379 L 56.085 420.379 L 56.085 420.379 Q 60.188 444.506 66.556 467.43 L 66.556 467.43 L 66.556 467.43 Q 68.82 468.137 72.004 468.349 L 72.004 468.349 L 72.004 468.349 Q 75.188 468.562 78.301 468.562 L 78.301 468.562 L 78.301 468.562 Q 81.272 468.562 83.678 468.279 L 83.678 468.279 L 83.678 468.279 Q 86.084 467.996 87.216 467.996 L 87.216 467.996 L 87.216 467.996 Q 90.612 455.685 93.725 443.728 L 93.725 443.728 L 93.725 443.728 Q 96.838 431.77 99.81 419.884 L 99.81 419.884 L 99.81 419.884 Q 102.781 407.998 105.54 395.97 L 105.54 395.97 L 105.54 395.97 Q 108.3 383.942 110.705 371.348 L 110.705 371.348 Z  M 139.661 368.659 L 139.661 368.659 Q 133.293 368.801 129.968 368.589 L 129.968 368.589 L 129.968 368.589 Q 126.643 368.376 124.096 368.235 L 124.096 368.235 L 124.096 368.235 Q 123.105 368.235 121.053 368.023 L 121.053 368.023 L 121.053 368.023 Q 119.001 367.81 118.294 367.952 L 118.294 367.952 L 118.294 368.235 L 118.294 368.235 Q 117.02 380.121 117.091 392.503 L 117.091 392.503 L 117.091 392.503 Q 117.162 404.885 117.516 417.549 L 117.516 417.549 L 117.516 417.549 Q 117.869 430.214 118.011 443.091 L 118.011 443.091 L 118.011 443.091 Q 118.152 455.968 117.162 468.703 L 117.162 468.703 L 117.162 468.703 Q 118.577 468.279 122.398 468.491 L 122.398 468.491 L 122.398 468.491 Q 126.218 468.703 130.393 468.845 L 130.393 468.845 L 130.393 468.845 Q 134.567 468.986 138.175 468.774 L 138.175 468.774 L 138.175 468.774 Q 141.784 468.562 142.916 467.43 L 142.916 467.43 L 142.916 467.43 Q 142.208 455.402 142.067 443.091 L 142.067 443.091 L 142.067 443.091 Q 141.925 430.78 142.137 418.398 L 142.137 418.398 L 142.137 418.398 Q 142.35 406.017 142.703 393.706 L 142.703 393.706 L 142.703 393.706 Q 143.057 381.395 143.057 369.225 L 143.057 369.225 L 143.057 368.659 L 139.661 368.659 Z  M 214.747 455.26 L 214.747 455.26 Q 214.606 454.128 214.677 452.642 L 214.677 452.642 L 214.677 452.642 Q 214.747 451.157 214.889 449.741 L 214.889 449.741 L 214.889 449.741 Q 215.03 448.185 215.03 446.628 L 215.03 446.628 L 215.03 446.628 Q 213.898 446.77 210.997 446.699 L 210.997 446.699 L 210.997 446.699 Q 208.097 446.628 204.347 446.487 L 204.347 446.487 L 204.347 446.487 Q 200.597 446.345 196.422 446.133 L 196.422 446.133 L 196.422 446.133 Q 192.248 445.921 188.569 445.779 L 188.569 445.779 L 188.569 445.779 Q 184.89 445.638 182.131 445.567 L 182.131 445.567 L 182.131 445.567 Q 179.371 445.496 178.381 445.779 L 178.381 445.779 L 178.381 445.638 L 178.381 445.638 Q 178.522 436.582 178.451 426.889 L 178.451 426.889 L 178.451 426.889 Q 178.381 417.195 178.239 407.432 L 178.239 407.432 L 178.239 407.432 Q 178.098 397.668 178.027 387.975 L 178.027 387.975 L 178.027 387.975 Q 177.956 378.282 178.239 369.084 L 178.239 369.084 L 178.239 369.084 Q 176.258 368.235 173.004 367.81 L 173.004 367.81 L 173.004 367.81 Q 169.749 367.386 166.353 367.386 L 166.353 367.386 L 166.353 367.386 Q 162.957 367.386 159.985 367.74 L 159.985 367.74 L 159.985 367.74 Q 157.013 368.093 155.598 368.659 L 155.598 368.659 L 155.598 368.659 Q 155.74 378.565 155.881 386.701 L 155.881 386.701 L 155.881 386.701 Q 156.023 394.838 156.164 402.055 L 156.164 402.055 L 156.164 402.055 Q 156.306 409.271 156.306 416.205 L 156.306 416.205 L 156.306 416.205 Q 156.306 423.139 156.235 430.568 L 156.235 430.568 L 156.235 430.568 Q 156.164 437.997 155.881 446.558 L 155.881 446.558 L 155.881 446.558 Q 155.598 455.119 155.174 465.731 L 155.174 465.731 L 155.174 468.279 L 155.174 468.279 Q 172.296 468.562 182.555 468.562 L 182.555 468.562 L 182.555 468.562 Q 192.814 468.562 198.687 468.42 L 198.687 468.42 L 198.687 468.42 Q 204.559 468.279 207.035 468.137 L 207.035 468.137 L 207.035 468.137 Q 209.512 467.996 211.068 468.137 L 211.068 468.137 L 211.068 468.137 Q 212.625 468.137 213.474 468.066 L 213.474 468.066 L 213.474 468.066 Q 214.323 467.996 214.677 466.793 L 214.677 466.793 L 214.677 466.793 Q 215.03 465.59 215.03 462.972 L 215.03 462.972 L 215.03 462.972 Q 215.03 460.354 214.747 455.26 L 214.747 455.26 Z  M 281.626 455.26 L 281.626 455.26 Q 281.485 454.128 281.555 452.642 L 281.555 452.642 L 281.555 452.642 Q 281.626 451.157 281.768 449.741 L 281.768 449.741 L 281.768 449.741 Q 281.909 448.185 281.909 446.628 L 281.909 446.628 L 281.909 446.628 Q 280.777 446.77 277.876 446.699 L 277.876 446.699 L 277.876 446.699 Q 274.976 446.628 271.226 446.487 L 271.226 446.487 L 271.226 446.487 Q 267.476 446.345 263.301 446.133 L 263.301 446.133 L 263.301 446.133 Q 259.127 445.921 255.448 445.779 L 255.448 445.779 L 255.448 445.779 Q 251.769 445.638 249.009 445.567 L 249.009 445.567 L 249.009 445.567 Q 246.25 445.496 245.26 445.779 L 245.26 445.779 L 245.26 445.638 L 245.26 445.638 Q 245.401 436.582 245.33 426.889 L 245.33 426.889 L 245.33 426.889 Q 245.26 417.195 245.118 407.432 L 245.118 407.432 L 245.118 407.432 Q 244.977 397.668 244.906 387.975 L 244.906 387.975 L 244.906 387.975 Q 244.835 378.282 245.118 369.084 L 245.118 369.084 L 245.118 369.084 Q 243.137 368.235 239.882 367.81 L 239.882 367.81 L 239.882 367.81 Q 236.628 367.386 233.232 367.386 L 233.232 367.386 L 233.232 367.386 Q 229.836 367.386 226.864 367.74 L 226.864 367.74 L 226.864 367.74 Q 223.892 368.093 222.477 368.659 L 222.477 368.659 L 222.477 368.659 Q 222.619 378.565 222.76 386.701 L 222.76 386.701 L 222.76 386.701 Q 222.902 394.838 223.043 402.055 L 223.043 402.055 L 223.043 402.055 Q 223.185 409.271 223.185 416.205 L 223.185 416.205 L 223.185 416.205 Q 223.185 423.139 223.114 430.568 L 223.114 430.568 L 223.114 430.568 Q 223.043 437.997 222.76 446.558 L 222.76 446.558 L 222.76 446.558 Q 222.477 455.119 222.053 465.731 L 222.053 465.731 L 222.053 468.279 L 222.053 468.279 Q 239.175 468.562 249.434 468.562 L 249.434 468.562 L 249.434 468.562 Q 259.693 468.562 265.565 468.42 L 265.565 468.42 L 265.565 468.42 Q 271.438 468.279 273.914 468.137 L 273.914 468.137 L 273.914 468.137 Q 276.391 467.996 277.947 468.137 L 277.947 468.137 L 277.947 468.137 Q 279.504 468.137 280.353 468.066 L 280.353 468.066 L 280.353 468.066 Q 281.202 467.996 281.555 466.793 L 281.555 466.793 L 281.555 466.793 Q 281.909 465.59 281.909 462.972 L 281.909 462.972 L 281.909 462.972 Q 281.909 460.354 281.626 455.26 L 281.626 455.26 Z  M 335.062 418.469 L 335.062 418.469 Q 334.496 416.063 333.506 411.96 L 333.506 411.96 L 333.506 411.96 Q 332.515 407.856 331.383 402.904 L 331.383 402.904 L 331.383 402.904 Q 330.251 397.951 329.048 392.574 L 329.048 392.574 L 329.048 392.574 Q 327.846 387.197 326.784 382.456 L 326.784 382.456 L 326.784 382.456 Q 325.723 377.716 324.803 373.966 L 324.803 373.966 L 324.803 373.966 Q 323.883 370.216 323.459 368.376 L 323.459 368.376 L 323.459 368.376 Q 318.789 368.801 315.888 368.872 L 315.888 368.872 L 315.888 368.872 Q 312.988 368.942 311.148 368.942 L 311.148 368.942 L 311.148 368.942 Q 309.308 368.942 308.176 368.942 L 308.176 368.942 L 308.176 368.942 Q 307.044 368.942 306.054 369.084 L 306.054 369.084 L 306.054 369.084 Q 302.658 380.404 299.828 391.866 L 299.828 391.866 L 299.828 391.866 Q 296.998 403.328 294.592 413.941 L 294.592 413.941 L 294.592 413.941 Q 292.186 424.554 290.418 433.964 L 290.418 433.964 L 290.418 433.964 Q 288.649 443.374 287.375 450.591 L 287.375 450.591 L 287.375 450.591 Q 286.102 457.807 285.394 462.335 L 285.394 462.335 L 285.394 462.335 Q 284.687 466.864 284.404 467.854 L 284.404 467.854 L 284.404 467.854 Q 284.545 467.996 284.687 467.996 L 284.687 467.996 L 284.687 467.996 Q 294.309 467.854 298.837 468.137 L 298.837 468.137 L 298.837 468.137 Q 303.365 468.42 304.497 468.137 L 304.497 468.137 L 304.497 468.137 Q 304.639 468.137 304.71 468.066 L 304.71 468.066 L 304.71 468.066 Q 304.78 467.996 304.922 467.996 L 304.922 467.996 L 304.922 467.996 Q 306.195 465.59 306.903 462.477 L 306.903 462.477 L 306.903 462.477 Q 307.61 459.364 308.247 456.038 L 308.247 456.038 L 308.247 456.038 Q 308.884 452.713 309.521 449.671 L 309.521 449.671 L 309.521 449.671 Q 310.157 446.628 311.148 444.364 L 311.148 444.364 L 311.148 444.364 Q 312.705 444.364 313.624 444.294 L 313.624 444.294 L 313.624 444.294 Q 314.544 444.223 315.322 444.223 L 315.322 444.223 L 315.322 444.223 Q 316.101 444.223 317.091 444.223 L 317.091 444.223 L 317.091 444.223 Q 318.082 444.223 319.921 444.506 L 319.921 444.506 L 319.921 444.506 Q 320.912 446.628 321.761 449.6 L 321.761 449.6 L 321.761 449.6 Q 322.61 452.572 323.388 455.826 L 323.388 455.826 L 323.388 455.826 Q 324.166 459.081 324.945 462.194 L 324.945 462.194 L 324.945 462.194 Q 325.723 465.307 326.572 467.571 L 326.572 467.571 L 326.713 467.571 L 326.713 467.571 Q 331.242 468.562 336.336 468.774 L 336.336 468.774 L 336.336 468.774 Q 341.43 468.986 345.675 468.137 L 345.675 468.137 L 345.675 467.996 L 335.062 418.469 Z  M 320.629 427.667 L 320.629 427.667 Q 317.94 427.667 315.252 427.738 L 315.252 427.738 L 315.252 427.738 Q 312.563 427.808 310.157 427.667 L 310.157 427.667 L 310.157 427.667 Q 311.148 420.45 311.926 414.224 L 311.926 414.224 L 311.926 414.224 Q 312.705 407.998 313.341 403.894 L 313.341 403.894 L 313.341 403.894 Q 313.978 399.79 314.756 398.446 L 314.756 398.446 L 314.756 398.446 Q 315.535 397.102 316.313 399.507 L 316.313 399.507 L 316.313 399.507 Q 317.091 401.913 318.152 408.705 L 318.152 408.705 L 318.152 408.705 Q 319.214 415.497 320.629 427.667 L 320.629 427.667 Z  M 374.914 368.659 L 374.914 368.659 Q 368.546 368.801 365.221 368.589 L 365.221 368.589 L 365.221 368.589 Q 361.895 368.376 359.348 368.235 L 359.348 368.235 L 359.348 368.235 Q 358.358 368.235 356.306 368.023 L 356.306 368.023 L 356.306 368.023 Q 354.254 367.81 353.547 367.952 L 353.547 367.952 L 353.547 368.235 L 353.547 368.235 Q 352.273 380.121 352.344 392.503 L 352.344 392.503 L 352.344 392.503 Q 352.415 404.885 352.768 417.549 L 352.768 417.549 L 352.768 417.549 Q 353.122 430.214 353.264 443.091 L 353.264 443.091 L 353.264 443.091 Q 353.405 455.968 352.415 468.703 L 352.415 468.703 L 352.415 468.703 Q 353.83 468.279 357.65 468.491 L 357.65 468.491 L 357.65 468.491 Q 361.471 468.703 365.645 468.845 L 365.645 468.845 L 365.645 468.845 Q 369.82 468.986 373.428 468.774 L 373.428 468.774 L 373.428 468.774 Q 377.036 468.562 378.168 467.43 L 378.168 467.43 L 378.168 467.43 Q 377.461 455.402 377.319 443.091 L 377.319 443.091 L 377.319 443.091 Q 377.178 430.78 377.39 418.398 L 377.39 418.398 L 377.39 418.398 Q 377.602 406.017 377.956 393.706 L 377.956 393.706 L 377.956 393.706 Q 378.31 381.395 378.31 369.225 L 378.31 369.225 L 378.31 368.659 L 374.914 368.659 Z  M 445.33 468.845 L 445.33 468.845 Q 447.736 468.845 448.726 468.562 L 448.726 468.562 L 448.726 468.562 Q 449.717 468.279 450 468.137 L 450 468.137 L 450 465.307 L 450 465.307 Q 450 462.477 449.929 459.647 L 449.929 459.647 L 449.929 459.647 Q 449.858 456.817 449.858 453.987 L 449.858 453.987 L 449.858 453.987 Q 449.858 450.024 449.929 446.204 L 449.929 446.204 L 449.929 446.204 Q 450 442.383 450 438.28 L 450 438.28 L 450 438.28 Q 450 432.195 450 426.11 L 450 426.11 L 450 426.11 Q 450 420.026 449.858 414.082 L 449.858 414.082 L 449.858 368.518 L 449.858 368.518 Q 445.755 367.669 440.519 367.669 L 440.519 367.669 L 440.519 367.669 Q 435.142 367.669 430.331 368.518 L 430.331 368.518 L 430.331 368.518 Q 430.189 372.056 430.119 375.098 L 430.119 375.098 L 430.119 375.098 Q 430.048 378.14 430.048 381.112 L 430.048 381.112 L 430.048 381.112 Q 430.048 386.206 430.26 391.088 L 430.26 391.088 L 430.26 391.088 Q 430.472 395.97 430.472 401.63 L 430.472 401.63 L 430.472 401.63 Q 430.472 404.036 430.189 406.583 L 430.189 406.583 L 430.189 406.583 Q 429.906 409.13 429.482 409.413 L 429.482 409.413 L 429.482 409.413 Q 429.34 409.413 428.491 407.785 L 428.491 407.785 L 428.491 407.785 Q 427.642 406.158 426.439 403.823 L 426.439 403.823 L 426.439 403.823 Q 425.237 401.488 423.822 398.588 L 423.822 398.588 L 423.822 398.588 Q 422.407 395.687 421.133 393.069 L 421.133 393.069 L 421.133 393.069 Q 419.86 390.451 418.869 388.47 L 418.869 388.47 L 418.869 388.47 Q 417.878 386.489 417.595 385.781 L 417.595 385.781 L 417.595 385.781 Q 416.322 382.81 415.402 380.9 L 415.402 380.9 L 415.402 380.9 Q 414.482 378.989 413.704 377.433 L 413.704 377.433 L 413.704 377.433 Q 412.926 375.876 412.077 374.178 L 412.077 374.178 L 412.077 374.178 Q 411.228 372.48 410.237 369.933 L 410.237 369.933 L 410.237 369.933 Q 410.237 369.65 408.751 369.367 L 408.751 369.367 L 408.751 369.367 Q 407.266 369.084 405.285 368.872 L 405.285 368.872 L 405.285 368.872 Q 403.304 368.659 401.322 368.589 L 401.322 368.589 L 401.322 368.589 Q 399.341 368.518 398.492 368.518 L 398.492 368.518 L 398.492 368.518 Q 396.794 368.518 395.167 368.659 L 395.167 368.659 L 395.167 368.659 Q 393.54 368.801 392.125 369.084 L 392.125 369.084 L 392.125 369.084 Q 391.417 378.14 391.134 387.692 L 391.134 387.692 L 391.134 387.692 Q 390.851 397.243 390.851 407.007 L 390.851 407.007 L 390.851 407.007 Q 390.851 420.309 391.063 432.478 L 391.063 432.478 L 391.063 432.478 Q 391.276 444.647 391.276 458.09 L 391.276 458.09 L 391.276 467.996 L 391.276 467.996 Q 394.53 467.996 397.997 468.42 L 397.997 468.42 L 397.997 468.42 Q 401.464 468.845 404.86 468.845 L 404.86 468.845 L 404.86 468.845 Q 406.417 468.845 407.973 468.703 L 407.973 468.703 L 407.973 468.703 Q 409.53 468.562 411.086 468.137 L 411.086 468.137 L 411.086 468.137 Q 410.945 465.731 410.945 462.689 L 410.945 462.689 L 410.945 462.689 Q 410.945 459.647 410.945 456.392 L 410.945 456.392 L 410.945 456.392 Q 410.945 450.449 411.016 444.081 L 411.016 444.081 L 411.016 444.081 Q 411.086 437.714 411.228 432.478 L 411.228 432.478 L 411.228 432.478 Q 411.369 427.242 411.582 423.846 L 411.582 423.846 L 411.582 423.846 Q 411.794 420.45 411.935 420.45 L 411.935 420.45 L 411.935 420.45 Q 412.218 420.45 412.714 421.794 L 412.714 421.794 L 412.714 421.794 Q 413.209 423.139 413.775 424.695 L 413.775 424.695 L 415.19 428.94 L 415.19 428.94 Q 418.444 437.997 423.043 447.831 L 423.043 447.831 L 423.043 447.831 Q 427.642 457.666 432.312 468.137 L 432.312 468.137 L 432.312 468.137 Q 435.142 468.137 438.821 468.491 L 438.821 468.491 L 438.821 468.491 Q 442.5 468.845 445.33 468.845 L 445.33 468.845 Z " fill="rgb(46,46,46)"/></g></g></svg>